<svg xmlns="http://www.w3.org/2000/svg" width="72" height="72" viewBox="0 0 72 72">
    <g fill="none" fill-rule="evenodd">
        <path fill="#0D356C" fill-rule="nonzero" d="M0 36.02C0 55.856 16.16 72 36.025 72 55.85 72 72 55.849 72 36.02 72 16.157 55.857 0 36.025 0 16.153 0 0 16.15 0 36.02z"/>
        <path fill="#FFF" d="M24.431 12.411c-1.42.616-2.503 1.285-3.581 2.032 8.696-3.871 19.312-3.62 25.01-1.078 1.791.832 2.994 1.336 3.54 2.33-5.912-1.584-8.452-1.87-13.401-1.75-7.04.127-16.402 2.913-19.981 5.042l-1.575 1.959c5.154-3.049 14.77-5.04 20.1-5.21 5.952-.08 10.569.462 14.817 2.002-.254 1.08-.794 1.622-1.709 2.166-16.98-2.958-27.012.536-36.085 6.45l-.663 1.954c10.114-6.949 22.512-8.861 34.46-6.781-4.286 1.499-9.405 1.831-13.691 2.823-3.662.836-5.619 1.088-10.493 2.714-4.946 1.625-7.866 3.29-9.694 5.413-.875 1.004-1.542 2.167-1.71 3.412-.078.746-.037 1.419.215 2.086.2.582.659 1.165 1.162 1.747-.58.998-1.087 2.293-.25 3.793.373.703 1.33 1.41 2.251 2.083l-.257.742c-.125.88-.246 1.919.336 2.791.996 1.582 2.203 2.626 4.118 3.625.294 1.292.747 2.33 1.747 3.25 2.122 1.954 6.87 5.702 15.316 6.286 6.33.42 10.864-1.499 12.573-2.333l2.08-1.08c-3.537 1.412-9.486 2.247-14.36 1.83-7.076-.583-13.397-5.204-14.189-6.538.246.164.58.29.867.417 8.287 3.997 18.982 6.165 32.676.585l1.128-1.084c-12.45 3.87-23.349 3.748-35.05-2.372.13-.583.38-1.09.916-1.498 2.994 1.325 5.87 2.414 9.367 3.118 4.078.752 8.738.92 12.57.752 3.872-.166 11.526-2.082 15.15-3.997.33-.29.495-.786.828-1.122-7.07 2.574-15.481 3.786-20.556 3.408-4.953-.371-9.361-.957-15.191-3.62a34.874 34.874 0 0 1 3.452-1.168c3.83 1.168 7.739 1.872 12.36 2.083 4.582.208 15.276-1.495 22.017-5.574.211-.584.417-1.213.417-1.213s-9.365 5.002-19.974 5.002c-4.955 0-7.992-.712-10.237-1.252 4.99-.917 11.277-1.668 18.347-3.456 3.58-.919 7.993-3.002 9.992-4.748 1.705-1.545 3.039-3.544 2.583-5.576-.09-.548-.836-1.832-1.753-2.293.875-1.125.792-2.084.67-2.91-.086-.635-.378-1.336-.747-1.96-.584-.756-1.13-1.343-2.255-2.004.17-.96.047-1.79-.332-2.582-.873-1.499-2.45-2.787-5.157-4.161-.125-.544-.462-1.251-1.04-1.957-3.41-3.373-8.99-4.998-13.696-5.082a35.735 35.735 0 0 0-.782-.008c-5.504 0-9.92 1.236-12.656 2.512zm26.634 8.327c.419-.459 1.038-1.166 1.203-1.75 1.169.749 2.501 1.873 2.664 3.04-1.245-.463-2.577-.955-3.867-1.29zm1.038 5.077c-1.993-.544-3.74-1.211-6.078-1.622 1.42-.546 2.372-1.125 3.21-1.794a35.669 35.669 0 0 1 5.038 1.747c-.244.364-1.67 1.682-2.105 1.682a.132.132 0 0 1-.065-.013zm3.623 1.457a9.627 9.627 0 0 0 1.5-1.417c1.12.958 1.453 1.625.915 2.666-.746-.54-1.544-.834-2.415-1.249zM12.986 37.6c-3.085-4.248 7.61-7.285 9.654-7.912 5.201-1.545 11.279-2.704 16.775-3.371 3.779-.462 5.783-.04 9.364.915-9.2 2.456-18.276 3.242-26.933 5.785-6.98 2.028-8.83 4.583-8.86 4.583zm2.284 2.037c3.246-2.75 9.866-4.288 12.283-4.83 7.696-1.665 14.856-2.705 17.81-3.452 3.582-.88 6.079-1.71 7.82-2.54.085-.126 2.914 1.246 3.206 1.575-.955.796-2.283 1.464-3.744 1.958-4.37 1.584-12.317 3.247-16.52 3.883-4.245.704-7.79 1.242-12.486 2.486-2.708.713-4.542 1.545-5.874 2.422-.998-.585-1.58-.748-2.495-1.502zm6.04 3.332c1.368-.583 2.867-1.042 4.32-1.411 7.328-1.8 13.785-2.128 22.69-4.54 4.285-1.129 7.406-2.34 9.365-3.831.288-.256.579-.462.873-.71 2.58 3.997-7.116 7.078-13.738 8.5-3.664.742-8.742 1.655-10.407 1.953-4.321.708-5.744 1.084-8.738 1.957-1.498-.584-2.997-1.21-4.366-1.918zm-7.79-1.25c.668.421 1.165.756 1.96 1.167-.293.25-.67.502-.958.792-.663-.379-1.334-1.203-1.001-1.959zm3.459 3.831c.417-.373.955-.746 1.537-1.119 1.25.585 2.538 1.12 3.745 1.663-.877.33-1.665.707-2.326 1.127-1-.548-1.96-1.087-2.956-1.67zm-1.084 2.04c.707.459 1.414.832 2.125 1.21-.292.418-.503.746-.624 1.167-1.042-.876-1.546-1.584-1.501-2.377z"/>
    </g>
</svg>
