<svg xmlns="http://www.w3.org/2000/svg" width="72" height="72" viewBox="0 0 72 72">
    <g fill="#FFF" fill-rule="evenodd">
        <path fill-rule="nonzero" d="M1.8 36.02c0 18.842 15.352 34.18 34.223 34.18C54.858 70.2 70.2 54.857 70.2 36.02 70.2 17.148 54.864 1.8 36.023 1.8 17.145 1.8 1.8 17.142 1.8 36.02zm-1.8 0C0 16.147 16.153 0 36.023 0 55.851 0 72 16.147 72 36.02 72 55.85 55.851 72 36.023 72 16.153 72 0 55.851 0 36.02z"/>
        <path d="M24.506 12.466c-1.42.615-2.503 1.284-3.581 2.032 8.696-3.872 19.312-3.62 25.01-1.079 1.79.833 2.994 1.336 3.54 2.33-5.913-1.584-8.452-1.87-13.402-1.75-7.039.128-16.402 2.913-19.98 5.043L14.517 21c5.153-3.048 14.77-5.04 20.1-5.209 5.951-.08 10.568.462 14.817 2.001-.254 1.08-.794 1.623-1.71 2.167-16.98-2.959-27.012.536-36.085 6.449l-.663 1.954c10.115-6.948 22.513-8.86 34.461-6.781-4.286 1.5-9.405 1.832-13.692 2.824-3.661.836-5.618 1.088-10.493 2.714-4.946 1.624-7.865 3.289-9.693 5.413-.875 1.003-1.542 2.166-1.711 3.412-.077.745-.037 1.418.215 2.085.2.583.66 1.165 1.163 1.747-.58.998-1.088 2.294-.25 3.793.373.703 1.33 1.41 2.251 2.084l-.258.742c-.124.88-.246 1.918.337 2.79.996 1.583 2.203 2.626 4.117 3.626.294 1.292.748 2.33 1.747 3.25 2.123 1.953 6.87 5.701 15.317 6.286 6.33.419 10.864-1.5 12.573-2.334l2.08-1.08c-3.537 1.413-9.487 2.247-14.361 1.83-7.076-.582-13.396-5.203-14.188-6.537.246.163.58.29.867.417 8.286 3.996 18.982 6.164 32.675.584l1.129-1.084c-12.45 3.871-23.35 3.748-35.05-2.372.13-.583.379-1.09.915-1.497 2.995 1.324 5.87 2.414 9.367 3.117 4.079.752 8.738.921 12.571.752 3.872-.165 11.526-2.082 15.15-3.996.33-.29.495-.787.828-1.123-7.07 2.574-15.482 3.787-20.556 3.408-4.954-.37-9.361-.957-15.191-3.62a34.874 34.874 0 0 1 3.452-1.168c3.829 1.169 7.739 1.872 12.36 2.084 4.582.207 15.275-1.496 22.016-5.575.212-.584.417-1.213.417-1.213s-9.364 5.002-19.973 5.002c-4.956 0-7.993-.711-10.238-1.251 4.99-.917 11.278-1.669 18.348-3.457 3.579-.918 7.992-3.002 9.991-4.747 1.705-1.546 3.04-3.545 2.584-5.577-.09-.548-.836-1.832-1.753-2.293.874-1.124.792-2.084.67-2.91-.086-.634-.378-1.336-.747-1.959-.585-.757-1.13-1.343-2.255-2.005.17-.959.046-1.79-.333-2.581-.872-1.5-2.45-2.787-5.157-4.162-.125-.544-.461-1.251-1.04-1.957-3.41-3.373-8.99-4.997-13.695-5.082a35.735 35.735 0 0 0-.783-.007c-5.503 0-9.92 1.235-12.655 2.512zm26.634 8.327c.419-.46 1.038-1.167 1.203-1.751 1.169.75 2.5 1.874 2.664 3.04-1.246-.463-2.578-.955-3.867-1.29zm1.038 5.076c-1.994-.544-3.741-1.21-6.078-1.622 1.42-.546 2.372-1.125 3.21-1.793a35.669 35.669 0 0 1 5.038 1.747c-.244.363-1.67 1.682-2.105 1.682a.132.132 0 0 1-.065-.014zm3.623 1.457a9.627 9.627 0 0 0 1.5-1.416c1.12.957 1.452 1.624.914 2.666-.746-.54-1.543-.834-2.414-1.25zM13.06 37.654c-3.085-4.248 7.61-7.285 9.653-7.911 5.202-1.546 11.28-2.705 16.775-3.372 3.78-.461 5.784-.04 9.365.915-9.2 2.457-18.276 3.243-26.934 5.786-6.98 2.028-8.83 4.582-8.86 4.582zm2.283 2.038c3.247-2.75 9.867-4.289 12.283-4.83 7.697-1.665 14.857-2.705 17.811-3.453 3.581-.88 6.078-1.709 7.82-2.54.084-.126 2.914 1.246 3.206 1.575-.955.796-2.284 1.465-3.744 1.959-4.37 1.584-12.318 3.246-16.52 3.883-4.246.703-7.79 1.241-12.486 2.485-2.709.713-4.543 1.546-5.875 2.422-.997-.584-1.58-.748-2.495-1.501zm6.04 3.331c1.369-.582 2.868-1.042 4.321-1.41 7.327-1.8 13.784-2.129 22.69-4.541 4.284-1.128 7.406-2.34 9.365-3.831.288-.256.578-.461.872-.71 2.58 3.997-7.116 7.078-13.738 8.5-3.663.743-8.742 1.656-10.406 1.954-4.322.707-5.744 1.084-8.739 1.956-1.497-.584-2.996-1.209-4.365-1.918zm-7.789-1.25c.667.422 1.165.756 1.959 1.167-.292.25-.669.502-.957.792-.664-.378-1.334-1.203-1.002-1.958zm3.458 3.832c.417-.373.956-.746 1.538-1.12 1.25.585 2.537 1.12 3.744 1.663-.876.331-1.664.708-2.325 1.127-1-.548-1.961-1.086-2.957-1.67zm-1.084 2.039c.707.46 1.415.832 2.126 1.21-.292.418-.504.747-.625 1.168-1.042-.877-1.545-1.584-1.5-2.378z"/>
    </g>
</svg>
